<svg version="1.1" id="Layer_1" xmlns="http://www.w3.org/2000/svg" xmlns:xlink="http://www.w3.org/1999/xlink" x="0px" y="0px"
	 width="100%" viewBox="0 0 672 688" enable-background="new 0 0 672 688" xml:space="preserve">
<path fill="#000000" opacity="1.000000" stroke="none" 
	d="
M305.915344,156.771057 
	C303.426483,163.338531 298.718231,165.684906 292.292084,166.362732 
	C242.141754,171.652481 198.393890,191.093231 161.577591,225.818375 
	C134.199905,251.640991 115.103210,282.682251 103.209305,318.216858 
	C96.407684,338.537628 92.707756,359.625122 92.541283,380.947266 
	C92.103439,437.025787 109.589417,486.961731 146.426468,529.644592 
	C178.591446,566.913879 218.790726,591.244751 266.785370,601.967224 
	C307.796326,611.129395 348.484650,608.801758 388.225128,594.851135 
	C437.032654,577.717590 475.640411,547.361694 504.164703,504.184052 
	C523.502747,474.911804 534.839722,442.702759 539.468201,408.050049 
	C540.276123,402.001129 540.532654,395.878540 542.234436,389.760284 
	C542.234436,396.169312 542.712708,402.620636 542.149719,408.979797 
	C539.981812,433.467682 534.738525,457.288391 524.967224,479.927246 
	C503.807465,528.951599 470.343506,567.162109 423.667053,593.323059 
	C396.680511,608.448364 367.724976,617.733215 336.876190,621.491211 
	C303.417511,625.567078 270.670197,622.427246 238.754761,612.361694 
	C190.128418,597.025574 150.384567,568.590271 119.596565,527.939514 
	C96.592873,497.566650 81.260384,463.612152 75.073044,425.946716 
	C65.678818,368.759430 74.275078,314.369843 103.925774,264.285309 
	C138.226074,206.346893 188.336166,168.802917 253.795044,152.197571 
	C263.627563,149.703308 273.654327,147.965607 283.737518,146.967865 
	C287.767487,146.569092 289.523346,144.656097 291.124420,141.474838 
	C299.223175,125.383003 307.957916,109.673157 319.356934,95.602081 
	C321.782074,92.608437 324.484680,89.915657 327.380432,87.397430 
	C333.956299,81.678833 336.744781,81.269646 344.405853,85.600800 
	C357.228577,92.850098 366.189575,103.949196 371.953308,117.045120 
	C375.599335,125.329369 380.765594,127.330795 389.000610,127.862885 
	C412.715515,129.395203 435.276917,135.426422 455.518677,148.408676 
	C458.357391,150.229324 460.287140,150.237778 463.099182,148.554260 
	C475.386749,141.197861 488.575500,136.440018 502.952728,135.058060 
	C512.603027,134.130447 515.204773,135.620209 517.222107,145.183426 
	C521.840515,167.077362 520.282043,188.842468 515.388855,210.483200 
	C509.953827,234.520416 501.505829,257.449127 488.475067,278.402649 
	C472.854156,303.521271 450.134521,318.945892 420.960663,323.784515 
	C391.695923,328.638214 365.652557,320.305298 342.575348,302.059937 
	C342.091034,301.677002 341.765991,301.092682 341.305878,300.527679 
	C343.080444,299.330017 343.951721,300.792145 344.869995,301.443115 
	C364.525330,315.377991 386.436707,321.747650 410.359161,319.535492 
	C435.068298,317.250549 455.265686,305.729340 471.209595,286.797180 
	C483.497498,272.206238 489.726227,254.599762 495.780457,236.907776 
	C502.013824,218.692108 505.574646,199.963333 506.572388,180.767731 
	C507.031525,171.934296 505.784454,163.167465 504.613037,154.420288 
	C504.111786,150.677353 502.105865,149.912674 498.643402,150.670853 
	C486.737793,153.277908 476.014496,158.410431 466.098053,165.380295 
	C460.382721,169.397369 458.090881,169.510330 452.555695,165.584167 
	C436.351257,154.090195 417.902283,149.015381 398.556610,146.306442 
	C389.942596,145.100250 381.297699,145.114563 372.647247,145.011856 
	C367.430847,144.949936 363.895050,142.723618 361.798798,137.810150 
	C357.468170,127.659470 352.344635,117.931587 344.714386,109.796432 
	C338.304230,102.962135 337.657715,103.026268 332.236664,110.487206 
	C321.814697,124.830765 313.635529,140.459045 305.915344,156.771057 
z"/>
<path fill="#000000" opacity="1.000000" stroke="none" 
	d="
M431.481079,264.708435 
	C428.143982,262.192291 425.130219,259.874329 423.698273,254.295273 
	C435.055298,258.982361 445.738403,262.343536 457.472656,261.968323 
	C453.643890,269.332550 441.853241,270.324432 431.481079,264.708435 
z"/>
<path fill="#000000" opacity="1.000000" stroke="none" 
	d="
M348.605225,247.086334 
	C341.552124,245.088242 336.258820,241.626923 333.879089,234.359375 
	C344.505981,238.485229 355.372009,241.082016 368.041412,241.171997 
	C361.899384,248.010361 355.442413,247.520477 348.605225,247.086334 
z"/>
</svg>